<?xml version="1.0" encoding="UTF-8" standalone="no"?>
<!-- Created with Inkscape (http://www.inkscape.org/) -->

<svg
   xmlns:dc="http://purl.org/dc/elements/1.1/"
   xmlns:cc="http://creativecommons.org/ns#"
   xmlns:rdf="http://www.w3.org/1999/02/22-rdf-syntax-ns#"
   xmlns:svg="http://www.w3.org/2000/svg"
   xmlns="http://www.w3.org/2000/svg"
   xmlns:sodipodi="http://sodipodi.sourceforge.net/DTD/sodipodi-0.dtd"
   xmlns:inkscape="http://www.inkscape.org/namespaces/inkscape"
   width="64"
   height="64"
   viewBox="0 0 64 64"
   id="svg6395"
   version="1.1"
   inkscape:version="0.91 r13725"
   sodipodi:docname="MH-Gem Slot 2 Icon.svg"
   inkscape:export-filename="C:\Users\gabie\Pictures\Custom Icons\Wiki Icons\Mantle Icon.png"
   inkscape:export-xdpi="523.63519"
   inkscape:export-ydpi="523.63519">
  <defs
     id="defs6397" />
  <sodipodi:namedview
     id="base"
     pagecolor="#ffffff"
     bordercolor="#666666"
     borderopacity="1.0"
     inkscape:pageopacity="0.0"
     inkscape:pageshadow="2"
     inkscape:zoom="7.919596"
     inkscape:cx="21.843989"
     inkscape:cy="25.557562"
     inkscape:document-units="px"
     inkscape:current-layer="layer2"
     showgrid="true"
     units="px"
     inkscape:object-nodes="true"
     inkscape:window-width="1304"
     inkscape:window-height="745"
     inkscape:window-x="-8"
     inkscape:window-y="-8"
     inkscape:window-maximized="1"
     showguides="true"
     inkscape:guide-bbox="true"
     inkscape:snap-smooth-nodes="true">
    <inkscape:grid
       type="xygrid"
       id="grid6979" />
    <sodipodi:guide
       position="24,3"
       orientation="1,0"
       id="guide4164" />
  </sodipodi:namedview>
  <metadata
     id="metadata6400">
    <rdf:RDF>
      <cc:Work
         rdf:about="">
        <dc:format>image/svg+xml</dc:format>
        <dc:type
           rdf:resource="http://purl.org/dc/dcmitype/StillImage" />
        <dc:title></dc:title>
      </cc:Work>
    </rdf:RDF>
  </metadata>
  <g
     inkscape:groupmode="layer"
     id="layer2"
     inkscape:label="Layer 2">
    <path
       style="display:inline;fill:#c0c0c0;fill-opacity:1;fill-rule:evenodd;stroke:#000000;stroke-width:2;stroke-linecap:round;stroke-linejoin:round;stroke-miterlimit:4;stroke-dasharray:none;stroke-opacity:1"
       d="m 15,6.00005 -11,11 0,9 L 19,46 l 13,0 13,0 15,-19.99995 0,-9 -11,-11 -17,0 -17,0 z"
       id="path5307-5"
       inkscape:connector-curvature="0" />
    <path
       style="display:inline;fill:#474747;fill-opacity:1;fill-rule:evenodd;stroke:#000000;stroke-width:2;stroke-linecap:round;stroke-linejoin:round;stroke-miterlimit:4;stroke-dasharray:none;stroke-opacity:1"
       d="m 17,9.00005 -10,10 0,5.00087 14,18.99998 11,-9e-4 11,9e-4 14,-18.99998 0,-5.00087 -10,-10 -15,0 z"
       id="path5325-1"
       inkscape:connector-curvature="0"
       sodipodi:nodetypes="ccccccccccc" />
    <path
       style="display:inline;fill:#c0c0c0;fill-opacity:1;fill-rule:evenodd;stroke:none;stroke-width:1px;stroke-linecap:butt;stroke-linejoin:miter;stroke-opacity:1"
       d="m 42,21.0009 -9,20 -2,0 -9,-20 z"
       id="path4854-3"
       inkscape:connector-curvature="0"
       inkscape:export-xdpi="94.736839"
       inkscape:export-ydpi="94.736839" />
    <path
       style="display:inline;fill:#929292;fill-opacity:1;fill-rule:evenodd;stroke:none;stroke-width:1px;stroke-linecap:butt;stroke-linejoin:miter;stroke-opacity:1"
       d="m 51,21.0009 0,4 -14,15 -5,1 -5,-1 -14,-15 0,-4 9,0 9,19 1,1 1,-1 9,-19 z"
       id="path4852-9"
       inkscape:connector-curvature="0"
       inkscape:export-xdpi="94.736839"
       inkscape:export-ydpi="94.736839" />
    <path
       style="display:inline;fill:#929292;fill-opacity:1;fill-rule:evenodd;stroke:none;stroke-width:1px;stroke-linecap:butt;stroke-linejoin:miter;stroke-opacity:1"
       d="m 22,21.0009 0,-10 20,0 0,10 -9,-10 -2,0 z"
       id="path4850-2"
       inkscape:connector-curvature="0"
       inkscape:export-xdpi="94.736839"
       inkscape:export-ydpi="94.736839" />
    <path
       style="display:inline;fill:#ffffff;fill-rule:evenodd;stroke:none;stroke-width:1px;stroke-linecap:butt;stroke-linejoin:miter;stroke-opacity:1"
       d="m 22,11.0009 0,10 9,-10 2,0 9,10 0,-10 2,0 7,7 0,3 -38,0 0,-3 7,-7 z"
       id="path4845-7"
       inkscape:connector-curvature="0"
       inkscape:export-xdpi="94.736839"
       inkscape:export-ydpi="94.736839" />
    <path
       id="path4822-0-0"
       style="display:inline;fill:none;fill-rule:evenodd;stroke:#000000;stroke-width:2;stroke-linecap:butt;stroke-linejoin:round;stroke-miterlimit:4;stroke-dasharray:none;stroke-opacity:1"
       d="m 42,11.0009 0,10 -9,-10 m -11,0 0,10 9,-10 m 11,10 -9,20 m -11,-20 9,20"
       inkscape:export-xdpi="94.736839"
       inkscape:export-ydpi="94.736839"
       inkscape:connector-curvature="0" />
    <path
       id="path4818-9"
       style="display:inline;fill:none;fill-rule:evenodd;stroke:#000000;stroke-width:2;stroke-linecap:round;stroke-linejoin:round;stroke-miterlimit:4;stroke-dasharray:none;stroke-opacity:1"
       d="m 13,21.0009 38,0 m -31,-10.00087 -7,7 0,7 14,15 5,1 5,-1 14,-15 0,-7 -7,-7 -12,0 -12,0 z"
       inkscape:export-xdpi="94.736839"
       inkscape:export-ydpi="94.736839"
       inkscape:connector-curvature="0" />
    <path
       style="display:inline;fill:#c0c0c0;fill-opacity:1;fill-rule:evenodd;stroke:#000000;stroke-width:2;stroke-linecap:round;stroke-linejoin:round;stroke-miterlimit:4;stroke-dasharray:none;stroke-opacity:1"
       d="m 14,46.0009 7,9 -14,0 z"
       id="path5391-9-4-2"
       inkscape:connector-curvature="0"
       sodipodi:nodetypes="cccc" />
    <path
       style="display:inline;fill:#c0c0c0;fill-opacity:1;fill-rule:evenodd;stroke:#000000;stroke-width:2;stroke-linecap:round;stroke-linejoin:round;stroke-miterlimit:4;stroke-dasharray:none;stroke-opacity:1"
       d="m 50,46.0009 7,9 -14,0 z"
       id="path5391-9-4-9-2"
       inkscape:connector-curvature="0"
       sodipodi:nodetypes="cccc" />
  </g>
</svg>
