<?xml version="1.0" standalone="no"?>
<!DOCTYPE svg PUBLIC "-//W3C//DTD SVG 20010904//EN"
 "http://www.w3.org/TR/2001/REC-SVG-20010904/DTD/svg10.dtd">
<svg version="1.0" xmlns="http://www.w3.org/2000/svg"
 width="93.000000pt" height="78.000000pt" viewBox="0 0 93.000000 78.000000"
 preserveAspectRatio="xMidYMid meet">
<metadata>
Created by potrace 1.10, written by Peter Selinger 2001-2011
</metadata>
<g transform="translate(0.000000,78.000000) scale(0.100000,-0.100000)"
fill="#000000" stroke="none">
  <path d="M406 705 c-3 -8 -14 -15 -23 -15 -10 0 -51 -33 -91 -73 l-72 -72 0
-62 c0 -52 3 -64 20 -73 11 -6 20 -21 20 -34 0 -13 7 -27 16 -30 8 -3 12 -10
9 -16 -9 -15 -45 -12 -51 5 -21 53 -104 1 -104 -66 0 -24 5 -39 15 -43 8 -3
15 -14 15 -23 0 -23 139 -163 162 -163 8 0 21 -7 28 -15 11 -14 16 -12 41 12
34 33 36 47 10 70 -11 9 -18 20 -15 25 9 14 44 9 50 -7 4 -10 20 -15 49 -15
29 0 45 5 49 15 7 19 56 20 56 1 0 -8 -7 -16 -15 -20 -23 -9 -18 -44 11 -71
33 -30 50 -31 64 -4 8 13 17 18 28 14 19 -7 132 100 132 126 0 9 7 22 15 29 9
8 15 30 15 59 0 39 -5 52 -29 75 l-29 28 -15 -22 c-19 -27 -51 -23 -55 7 -2
14 4 26 17 33 19 10 21 20 21 103 l0 93 -74 73 -75 72 -48 -5 c-26 -2 -49 -5
-50 -5 -2 -1 -3 -21 -3 -45 0 -30 5 -46 15 -50 11 -4 15 -20 15 -55 0 -59 -13
-71 -40 -39 -15 18 -19 39 -20 91 0 37 -4 67 -9 67 -5 0 -13 9 -16 20 -7 24
-30 26 -39 5z m34 -64 c0 -10 -6 -24 -14 -30 -21 -18 -16 -155 6 -159 9 -2 23
6 31 18 l15 21 36 -21 c21 -11 41 -18 47 -15 16 10 11 151 -6 165 -17 14 -20
50 -5 50 20 0 85 -39 120 -71 34 -31 35 -35 39 -116 3 -76 1 -87 -18 -104 -12
-11 -21 -30 -21 -42 0 -40 16 -52 67 -52 26 1 51 -4 55 -10 9 -13 -1 -56 -18
-76 -8 -8 -14 -20 -14 -26 0 -20 -115 -113 -140 -113 -14 0 -3 39 17 62 8 9
13 29 11 45 -4 34 -35 42 -71 18 -33 -21 -125 -22 -171 0 -50 24 -67 15 -62
-31 3 -20 10 -42 15 -47 6 -6 11 -19 11 -29 0 -16 -2 -16 -32 0 -51 27 -107
82 -125 124 -9 21 -20 38 -25 38 -4 0 -8 14 -8 30 0 34 -1 34 51 19 32 -10 42
-9 64 5 25 16 35 59 16 71 -22 13 -41 72 -41 124 1 54 3 58 48 101 48 46 101
80 115 73 4 -2 7 -12 7 -22z"/>
<path d="M332 548 c-20 -20 -15 -122 9 -167 27 -53 79 -98 127 -111 94 -25
202 87 202 210 0 33 -5 52 -18 63 -26 24 -32 13 -32 -55 0 -63 -17 -107 -57
-148 -22 -22 -26 -23 -37 -8 -10 14 -14 14 -31 2 -31 -23 -51 -16 -84 25 -29
36 -32 47 -34 118 -2 60 -5 78 -17 81 -9 1 -21 -3 -28 -10z"/>
<path d="M456 409 c-23 -23 -15 -34 27 -35 18 0 40 -4 50 -8 25 -12 23 25 -3
47 -26 22 -50 21 -74 -4z"/>
<path d="M273 225 c-7 -19 13 -36 37 -32 8 1 15 11 15 22 0 26 -42 34 -52 10z"/>
<path d="M657 233 c-15 -14 -6 -31 20 -37 28 -8 45 7 36 31 -5 13 -45 18 -56
6z"/>
</g>
</svg>
